<svg width="32" height="32" viewBox="0 0 32 32" fill="none" xmlns="http://www.w3.org/2000/svg">
<path fill-rule="evenodd" clip-rule="evenodd" d="M13 23C17.9706 23 22 18.9706 22 14C22 9.02944 17.9706 5 13 5C8.02944 5 4 9.02944 4 14C4 18.9706 8.02944 23 13 23ZM13 26C19.6274 26 25 20.6274 25 14C25 7.37258 19.6274 2 13 2C6.37258 2 1 7.37258 1 14C1 20.6274 6.37258 26 13 26Z" fill="black"/>
<path fill-rule="evenodd" clip-rule="evenodd" d="M29 30L21 22L23.1213 19.8787L31.1213 27.8787L29 30Z" fill="black"/>
</svg>
