<svg width="173" height="172" viewBox="0 0 173 172" fill="none" xmlns="http://www.w3.org/2000/svg">
<circle cx="86.1667" cy="86" r="86" fill="#E1E530"/>
<path d="M96.6667 63.005C96.6667 58.04 92.6317 54.005 87.6667 54.005C82.7017 54.005 78.6667 58.04 78.6667 63.005C78.6667 67.97 82.7017 72.005 87.6667 72.005C92.6317 72.005 96.6667 67.97 96.6667 63.005ZM82.6717 63.005C82.6717 60.245 84.9067 58.01 87.6667 58.01C90.4267 58.01 92.6617 60.245 92.6617 63.005C92.6617 65.765 90.4267 68 87.6667 68C84.9067 68 82.6717 65.765 82.6717 63.005Z" fill="black"/>
<path d="M113.242 98.765C112.867 98.285 112.282 98 111.667 98H85.4167C85.4167 95.225 85.7767 89.45 88.2217 82.55C89.5717 83.9 91.2067 84.95 93.1117 85.46C96.3817 86.345 99.8017 85.7 102.532 83.72C105.262 81.74 106.912 78.68 107.092 75.32C107.212 73.1 106.672 70.955 105.562 69.095C107.542 68.24 109.252 66.815 110.452 64.955C112.282 62.135 112.747 58.685 111.697 55.475C110.647 52.265 108.247 49.745 105.112 48.545C103.042 47.75 100.822 47.6 98.7217 48.08C98.5117 45.92 97.6867 43.85 96.2917 42.125C94.1767 39.515 91.0267 38.03 87.6667 38.03C84.3067 38.03 81.1717 39.53 79.0417 42.14C77.6467 43.865 76.8067 45.92 76.6117 48.08C74.5117 47.615 72.2917 47.75 70.2217 48.545C67.0717 49.745 64.6717 52.28 63.6367 55.49C62.6017 58.7 63.0517 62.15 64.8817 64.97C66.0817 66.83 67.7917 68.255 69.7717 69.11C68.6767 70.97 68.1217 73.13 68.2417 75.335C68.4217 78.695 70.0867 81.755 72.8017 83.735C74.7217 85.13 77.0017 85.865 79.3117 85.865C80.2867 85.865 81.2617 85.73 82.2217 85.475C82.5817 85.37 82.8817 85.175 83.2267 85.04C81.6517 90.77 81.3667 95.45 81.3817 98.03H59.6617C59.0467 98.03 58.4617 98.315 58.0867 98.795C57.7117 99.275 57.5767 99.905 57.7267 100.505L65.7217 132.5C65.9467 133.385 66.7417 134.015 67.6567 134.015H103.657C104.572 134.015 105.367 133.385 105.592 132.5L113.587 100.505C113.737 99.905 113.602 99.275 113.227 98.795L113.242 98.765ZM81.2167 81.59C79.1167 82.16 76.9267 81.74 75.1867 80.48C73.4467 79.22 72.3817 77.255 72.2767 75.095C72.1567 72.95 73.0267 70.88 74.6317 69.425C75.2167 68.9 75.4417 68.075 75.2017 67.325C74.9617 66.575 74.2867 66.035 73.5067 65.96C71.3467 65.735 69.4417 64.565 68.2717 62.765C67.1017 60.95 66.8017 58.745 67.4767 56.69C68.1367 54.65 69.6817 53.015 71.6917 52.25C72.5167 51.935 73.3717 51.785 74.2267 51.785C75.4567 51.785 76.6867 52.115 77.7967 52.745C78.4717 53.135 79.3267 53.09 79.9717 52.64C80.6167 52.19 80.9167 51.38 80.7517 50.615C80.3017 48.485 80.8267 46.295 82.1767 44.63C84.8917 41.285 90.5017 41.285 93.2167 44.63C94.5667 46.295 95.0917 48.485 94.6417 50.615C94.4767 51.395 94.7917 52.19 95.4217 52.64C96.0667 53.105 96.9217 53.15 97.5967 52.745C99.4717 51.665 101.692 51.47 103.702 52.25C105.712 53.03 107.257 54.635 107.917 56.69C108.577 58.745 108.292 60.95 107.107 62.765C105.937 64.565 104.032 65.735 101.872 65.96C101.092 66.035 100.417 66.575 100.177 67.325C99.9367 68.075 100.147 68.9 100.747 69.425C102.352 70.88 103.222 72.935 103.102 75.08C102.982 77.24 101.917 79.19 100.177 80.465C98.4217 81.725 96.2167 82.13 94.1467 81.575C92.0767 81.02 90.3817 79.565 89.4967 77.585C89.4967 77.555 89.4517 77.555 89.4367 77.525C89.2417 77.12 88.9117 76.76 88.4617 76.565C87.4417 76.115 86.2717 76.58 85.8217 77.585C84.9367 79.55 83.2567 81.005 81.1867 81.56L81.2167 81.59ZM109.102 102.005L108.097 106.01H63.2317L62.2267 102.005H109.102ZM102.097 129.995H69.2317L64.2367 110H107.107L102.112 129.995H102.097Z" fill="black"/>
</svg>
