<svg width="174" height="172" viewBox="0 0 174 172" fill="none" xmlns="http://www.w3.org/2000/svg">
<circle cx="86.8333" cy="86" r="86" fill="#E1E530"/>
<path d="M73.4683 83C73.8883 83 74.3233 82.97 74.7433 82.91C77.9533 82.46 80.6983 80.33 82.9183 76.595C88.8883 87.29 90.8533 95.975 90.8833 96.125C91.0783 96.995 91.8133 97.64 92.6983 97.7C92.7433 97.7 92.8033 97.7 92.8483 97.7C93.6733 97.7 94.4233 97.19 94.7233 96.41C94.7533 96.32 96.7633 91.1 100.633 85.67C102.703 88.88 105.133 90.02 106.993 90.38C107.518 90.485 108.043 90.53 108.583 90.53C111.763 90.53 115.243 88.82 118.153 85.745C122.953 80.675 125.713 67.01 121.963 58.865C121.708 58.31 121.228 57.905 120.628 57.77C120.058 57.62 119.428 57.755 118.933 58.115C115.423 60.755 112.198 61.595 108.763 62.48C105.808 63.245 102.748 64.04 99.7333 66.05C96.2533 68.36 94.2583 71.555 94.2583 74.795C94.2583 76.745 94.9933 79.505 98.2033 82.205C96.1033 84.965 94.4683 87.74 93.2833 89.99C91.9633 86 89.6383 80.15 85.8883 73.64C89.8783 71.405 92.2783 68.63 93.0433 65.36C93.9733 61.37 92.4283 56.975 88.4533 52.295C84.7483 47.915 79.7683 46.43 74.5183 44.84C69.9133 43.46 65.1583 42.02 60.9583 38.48C60.4933 38.09 59.8783 37.925 59.2933 38.045C58.6933 38.165 58.1833 38.54 57.9133 39.08C52.3933 49.505 54.9883 68.495 61.0333 75.605C65.1283 80.435 69.5083 83.015 73.5133 83.015L73.4683 83ZM98.2483 74.795C98.2483 72.935 99.6283 70.91 101.938 69.365C104.398 67.73 106.993 67.055 109.753 66.335C112.603 65.6 115.768 64.775 119.083 62.795C120.748 69.47 118.588 79.43 115.213 82.985C113.323 84.98 110.353 86.945 107.713 86.435C105.973 86.105 104.473 84.695 103.273 82.28C105.613 79.595 108.433 77.12 111.718 75.485C112.708 74.99 113.113 73.79 112.618 72.8C112.123 71.81 110.923 71.405 109.933 71.9C106.348 73.7 103.273 76.295 100.723 79.1C99.4183 77.99 98.2333 76.505 98.2333 74.765L98.2483 74.795ZM60.4483 43.13C64.7083 46.07 69.2533 47.45 73.3483 48.665C78.2383 50.135 82.4533 51.41 85.3933 54.875C87.5233 57.395 89.9083 61.1 89.1433 64.445C88.6483 66.605 86.8333 68.54 83.8033 70.205C80.1283 64.445 75.3433 58.37 69.1183 52.775C68.2933 52.04 67.0333 52.1 66.2983 52.925C65.5633 53.75 65.6233 55.01 66.4483 55.76C72.4033 61.115 77.0083 66.995 80.5183 72.575C78.7183 76.46 76.5883 78.62 74.1733 78.965C71.2933 79.415 67.6033 77.21 64.0483 73.01C59.3983 67.52 57.1033 52.4 60.4483 43.145V43.13Z" fill="black"/>
<path d="M134.248 110.585C129.553 105.89 125.503 104.6 120.208 106.1L105.523 110.975C105.058 108.365 102.778 105.995 98.8483 105.995H87.6583C84.6883 103.19 77.9383 98 68.8483 98H58.8433V96.005C58.8433 94.895 57.9433 94.01 56.8483 94.01H40.8283C39.7183 94.01 38.8333 94.91 38.8333 96.005V128C38.8333 129.11 39.7333 129.995 40.8283 129.995H56.8333C57.9433 129.995 58.8283 129.095 58.8283 128V124.79C62.8333 126.14 66.3133 127.37 69.3433 128.435C79.2283 131.915 84.7333 133.805 89.7283 133.805C95.8033 133.805 101.143 130.985 112.678 124.775C118.078 121.865 124.798 118.25 133.723 113.795C134.293 113.51 134.698 112.955 134.803 112.325C134.908 111.695 134.698 111.05 134.248 110.585ZM54.8383 126.005H42.8383V98H54.8383V126.005ZM110.788 121.25C97.6683 128.31 84.2983 129.445 70.6783 124.655C67.3183 123.47 63.4033 122.105 58.8433 120.56V101.99H68.8483C77.1283 101.99 83.2033 107.18 85.4383 109.4C85.8133 109.775 86.3233 109.985 86.8483 109.985H98.8483C100.903 109.985 101.623 111.065 101.623 111.98C101.623 112.895 100.888 113.975 98.8483 113.975H76.8433C75.7333 113.975 74.8483 114.875 74.8483 115.97C74.8483 117.065 75.7483 117.965 76.8433 117.965H98.8483C101.398 117.965 103.228 116.96 104.353 115.55L121.393 109.895C124.033 109.145 126.298 109.19 129.313 111.515C121.633 115.4 115.678 118.61 110.788 121.235V121.25Z" fill="black"/>
</svg>
