<svg width="173" height="172" viewBox="0 0 173 172" fill="none" xmlns="http://www.w3.org/2000/svg">
<circle cx="86.5" cy="86" r="86" fill="#E1E530"/>
<path d="M125.2 107.945C124.45 106.685 122.38 106.685 121.63 107.945C120.52 109.79 115 119.195 115 123.065C115 127.7 118.78 131.465 123.415 131.465C128.05 131.465 131.83 127.7 131.83 123.065C131.83 119.195 126.31 109.79 125.2 107.945ZM123.415 127.295C121.075 127.295 119.17 125.39 119.17 123.065C119.17 121.64 121.15 117.335 123.415 113.21C125.68 117.335 127.66 121.64 127.66 123.065C127.66 125.405 125.755 127.295 123.415 127.295Z" fill="black"/>
<path d="M134.365 105.275V96.935C134.365 74.66 115.27 66.245 96.7 65.705C95.8 59.315 90.73 54.29 84.34 53.36V48.92L105.175 49.01C106.33 49.01 107.26 48.08 107.26 46.94C107.26 45.785 106.33 44.855 105.19 44.855L84.34 44.765V38.585C84.34 37.43 83.41 36.5 82.255 36.5H69.745C68.59 36.5 67.66 37.43 67.66 38.585V44.84H46.84C45.685 44.84 44.755 45.77 44.755 46.925C44.755 48.08 45.685 49.01 46.84 49.01H67.675V53.375C61.3 54.29 56.23 59.315 55.315 65.69H40.585C39.43 65.69 38.5 66.62 38.5 67.775V88.61C38.5 89.765 39.43 90.695 40.585 90.695H55.315C56.335 97.76 62.425 103.205 69.76 103.205H82.27C89.605 103.205 95.695 97.76 96.715 90.695H107.29C110.74 90.695 113.545 93.5 113.545 96.95V105.29C113.545 106.445 114.475 107.375 115.63 107.375H132.31C133.465 107.375 134.395 106.445 134.395 105.29L134.365 105.275ZM71.845 40.67H80.185V53.18H71.845V40.67ZM42.67 69.845H55.18V86.525H42.67V69.845ZM82.27 99.02H69.76C64.015 99.02 59.335 94.34 59.335 88.595V67.76C59.335 62.015 64.015 57.335 69.76 57.335H82.27C88.015 57.335 92.695 62.015 92.695 67.76V88.595C92.695 94.34 88.015 99.02 82.27 99.02ZM130.195 103.19H117.685V96.935C117.685 91.19 113.005 86.51 107.26 86.51H96.835V69.875C106.84 70.235 130.18 73.595 130.18 96.92V103.175L130.195 103.19Z" fill="black"/>
</svg>
